HIERARCHY
ROOT Hips
{
  OFFSET 5.80788e-005 67.184 3.4734
  CHANNELS 6 Xposition Yposition Zposition Zrotation Xrotation Yrotation
  JOINT Chest
  {
    OFFSET 0 8.7983 -4.7612
    CHANNELS 3 Zrotation Xrotation Yrotation
    JOINT Chest2
    {
      OFFSET 0 8.0291 0.4195
      CHANNELS 3 Zrotation Xrotation Yrotation
      JOINT Chest3
      {
        OFFSET 0 9.9351 -2.2114
        CHANNELS 3 Zrotation Xrotation Yrotation
        JOINT Neck
        {
          OFFSET 0 22.3885 -0.4656
          CHANNELS 3 Zrotation Xrotation Yrotation
          JOINT Head
          {
            OFFSET -0.0001 12.643 3.4389
            CHANNELS 3 Zrotation Xrotation Yrotation
            End Site
            {
              OFFSET 0.0001 17.6655 0.5274
            }
          }
        }
        JOINT LeftCollar
        {
          OFFSET 2.2603 21.606 7.4023
          CHANNELS 3 Zrotation Xrotation Yrotation
          JOINT LeftShoulder
          {
            OFFSET 13.5163 -1.1332 -5.0146
            CHANNELS 3 Zrotation Xrotation Yrotation
            JOINT LeftElbow
            {
              OFFSET -0.0995 -28.05 -0.2431
              CHANNELS 3 Zrotation Xrotation Yrotation
              JOINT LeftWrist
              {
                OFFSET 0.0679 -23.3996 -0.1402
                CHANNELS 3 Zrotation Xrotation Yrotation
                JOINT LeftFinger1
                {
                  OFFSET 0.7932 -9.069 2.5189
                  CHANNELS 3 Zrotation Xrotation Yrotation
                  JOINT LeftFinger11
                  {
                    OFFSET -0.8272 -3.3923 0.5977
                    CHANNELS 3 Zrotation Xrotation Yrotation
                    JOINT LeftFinger12
                    {
                      OFFSET -0.5649 -2.3158 0.4082
                      CHANNELS 3 Zrotation Xrotation Yrotation
                      End Site
                      {
                        OFFSET -0.4919 -1.6479 0.2673
                      }
                    }
                  }
                }
                JOINT LeftFinger2
                {
                  OFFSET 0.9159 -9.2044 0.2193
                  CHANNELS 3 Zrotation Xrotation Yrotation
                  JOINT LeftFinger21
                  {
                    OFFSET 0.0117 -4.1944 -0.0248
                    CHANNELS 3 Zrotation Xrotation Yrotation
                    JOINT LeftFinger22
                    {
                      OFFSET 0.0071 -2.3249 -0.0142
                      CHANNELS 3 Zrotation Xrotation Yrotation
                      End Site
                      {
                        OFFSET -0.1475 -2.0882 0.0028
                      }
                    }
                  }
                }
                JOINT LeftFinger3
                {
                  OFFSET 0.6113 -8.7231 -2.0637
                  CHANNELS 3 Zrotation Xrotation Yrotation
                  JOINT LeftFinger31
                  {
                    OFFSET -0.1927 -3.8059 -0.2383
                    CHANNELS 3 Zrotation Xrotation Yrotation
                    JOINT LeftFinger32
                    {
                      OFFSET -0.1091 -2.1688 -0.1362
                      CHANNELS 3 Zrotation Xrotation Yrotation
                      End Site
                      {
                        OFFSET -0.2358 -1.9176 -0.0906
                      }
                    }
                  }
                }
                JOINT LeftFinger4
                {
                  OFFSET -0.6151 -8.0947 -3.5641
                  CHANNELS 3 Zrotation Xrotation Yrotation
                  JOINT LeftFinger41
                  {
                    OFFSET -0.4882 -2.341 -0.6462
                    CHANNELS 3 Zrotation Xrotation Yrotation
                    JOINT LeftFinger42
                    {
                      OFFSET -0.3575 -1.7167 -0.4742
                      CHANNELS 3 Zrotation Xrotation Yrotation
                      End Site
                      {
                        OFFSET -0.4187 -1.5237 -0.3496
                      }
                    }
                  }
                }
                JOINT LeftFinger0
                {
                  OFFSET -1.42 -1.8761 1.4223
                  CHANNELS 3 Zrotation Xrotation Yrotation
                  JOINT LeftFinger01
                  {
                    OFFSET -1.1471 -3.4929 2.6334
                    CHANNELS 3 Zrotation Xrotation Yrotation
                    JOINT LeftFinger02
                    {
                      OFFSET -0.823 -2.3 1.6571
                      CHANNELS 3 Zrotation Xrotation Yrotation
                      End Site
                      {
                        OFFSET -0.5822 -1.6914 1.1582
                      }
                    }
                  }
                }
              }
            }
          }
        }
        JOINT RightCollar
        {
          OFFSET -2.2603 21.606 7.4023
          CHANNELS 3 Zrotation Xrotation Yrotation
          JOINT RightShoulder
          {
            OFFSET -13.5187 -1.1334 -5.0155
            CHANNELS 3 Zrotation Xrotation Yrotation
            JOINT RightElbow
            {
              OFFSET 0.0994 -28.0499 -0.2431
              CHANNELS 3 Zrotation Xrotation Yrotation
              JOINT RightWrist
              {
                OFFSET -0.0679 -23.3996 -0.1402
                CHANNELS 3 Zrotation Xrotation Yrotation
                JOINT RightFinger1
                {
                  OFFSET -0.7932 -9.0691 2.5189
                  CHANNELS 3 Zrotation Xrotation Yrotation
                  JOINT RightFinger11
                  {
                    OFFSET 0.8272 -3.3923 0.5977
                    CHANNELS 3 Zrotation Xrotation Yrotation
                    JOINT RightFinger12
                    {
                      OFFSET 0.565 -2.3158 0.4082
                      CHANNELS 3 Zrotation Xrotation Yrotation
                      End Site
                      {
                        OFFSET 0.4919 -1.6479 0.2673
                      }
                    }
                  }
                }
                JOINT RightFinger2
                {
                  OFFSET -0.916 -9.2044 0.2193
                  CHANNELS 3 Zrotation Xrotation Yrotation
                  JOINT RightFinger21
                  {
                    OFFSET -0.0117 -4.1944 -0.0248
                    CHANNELS 3 Zrotation Xrotation Yrotation
                    JOINT RightFinger22
                    {
                      OFFSET -0.0071 -2.3249 -0.0142
                      CHANNELS 3 Zrotation Xrotation Yrotation
                      End Site
                      {
                        OFFSET 0.1475 -2.0882 0.0028
                      }
                    }
                  }
                }
                JOINT RightFinger3
                {
                  OFFSET -0.6113 -8.7231 -2.0637
                  CHANNELS 3 Zrotation Xrotation Yrotation
                  JOINT RightFinger31
                  {
                    OFFSET 0.1927 -3.8059 -0.2383
                    CHANNELS 3 Zrotation Xrotation Yrotation
                    JOINT RightFinger32
                    {
                      OFFSET 0.1091 -2.1688 -0.1362
                      CHANNELS 3 Zrotation Xrotation Yrotation
                      End Site
                      {
                        OFFSET 0.2358 -1.9176 -0.0906
                      }
                    }
                  }
                }
                JOINT RightFinger4
                {
                  OFFSET 0.6151 -8.0947 -3.564
                  CHANNELS 3 Zrotation Xrotation Yrotation
                  JOINT RightFinger41
                  {
                    OFFSET 0.4882 -2.341 -0.6462
                    CHANNELS 3 Zrotation Xrotation Yrotation
                    JOINT RightFinger42
                    {
                      OFFSET 0.3574 -1.7166 -0.4742
                      CHANNELS 3 Zrotation Xrotation Yrotation
                      End Site
                      {
                        OFFSET 0.4187 -1.5237 -0.3496
                      }
                    }
                  }
                }
                JOINT RightFinger0
                {
                  OFFSET 1.4199 -1.8761 1.4221
                  CHANNELS 3 Zrotation Xrotation Yrotation
                  JOINT RightFinger01
                  {
                    OFFSET 1.1472 -3.4929 2.6336
                    CHANNELS 3 Zrotation Xrotation Yrotation
                    JOINT RightFinger02
                    {
                      OFFSET 0.8229 -2.3 1.6571
                      CHANNELS 3 Zrotation Xrotation Yrotation
                      End Site
                      {
                        OFFSET 0.5822 -1.6914 1.1582
                      }
                    }
                  }
                }
              }
            }
          }
        }
      }
    }
  }
  JOINT RightHip
  {
    OFFSET -9.412 3.9771 -0.7758
    CHANNELS 3 Zrotation Xrotation Yrotation
    JOINT RightKnee
    {
      OFFSET -0.7531 -40.938 0
      CHANNELS 3 Zrotation Xrotation Yrotation
      JOINT RightAnkle
      {
        OFFSET 0 -40.1986 0
        CHANNELS 3 Zrotation Xrotation Yrotation
        JOINT RightToe
        {
          OFFSET 0 -4.4182 9.239
          CHANNELS 3 Zrotation Xrotation Yrotation
          End Site
          {
            OFFSET 0 0 6.1981
          }
        }
      }
    }
  }
  JOINT LeftHip
  {
    OFFSET 9.4119 3.9773 -0.7758
    CHANNELS 3 Zrotation Xrotation Yrotation
    JOINT LeftKnee
    {
      OFFSET 0.7532 -40.9383 0
      CHANNELS 3 Zrotation Xrotation Yrotation
      JOINT LeftAnkle
      {
        OFFSET 0 -40.1986 0
        CHANNELS 3 Zrotation Xrotation Yrotation
        JOINT LeftToe
        {
          OFFSET 0 -4.4182 9.239
          CHANNELS 3 Zrotation Xrotation Yrotation
          End Site
          {
            OFFSET 0 0 6.1981
          }
        }
      }
    }
  }
}
MOTION
Frames:	6
Frame Time:	0.0333333
5.80788e-005 67.184 3.4734 0 0 -0 0 0 -0 0 0 -0 0 0 -0 0 0 -0 0 0 -0 0 0 -12.5014 88.1196 14.2451 10.6914 -0.00160068 -0.00239207 0.000740045 -8.4365e-005 7.00714e-005 -9.52055e-007 9.93923e-017 -1.98785e-016 -1.59028e-015 9.93923e-017 -5.96354e-016 -1.59028e-015 -9.93923e-017 -5.96354e-016 -1.59028e-015 9.93923e-017 -1.98785e-016 -1.59028e-015 -0.0128176 0.00232552 8.52707e-005 9.93923e-017 5.96354e-016 -0 9.93923e-017 -1.98785e-016 -1.59028e-015 -0.0160551 0.00299681 0.000857156 -2.48481e-016 0 3.18055e-015 9.93923e-017 -1.98785e-016 -1.59028e-015 -0.0125865 0.0031206 0.00282719 0 1.98785e-016 -0 9.93923e-017 -1.98785e-016 -1.59028e-015 9.93923e-017 -5.96354e-016 -1.59028e-015 -9.93923e-017 -5.96354e-016 -1.59028e-015 -0.865644 0.16582 7.03859 -88.0329 10.2057 -10.5567 0.0015593 -0.00248883 -0.000788628 7.87605e-005 4.10553e-005 1.24965e-005 -3.97569e-016 -7.95139e-016 3.18055e-015 -1.98785e-016 -3.97569e-016 3.18055e-015 -1.98785e-016 0 3.18055e-015 -3.97569e-016 -7.95139e-016 3.18055e-015 0.0129473 0.00231697 -8.70038e-005 9.93923e-017 -7.95139e-016 1.59028e-015 -3.97569e-016 -7.95139e-016 3.18055e-015 0.0163314 0.00303369 -0.000872333 3.97569e-016 7.95139e-016 -3.18055e-015 -3.97569e-016 -7.95139e-016 3.18055e-015 0.0145763 0.00367772 -0.00326275 9.93923e-017 -3.97569e-016 -0 -3.97569e-016 -7.95139e-016 3.18055e-015 -1.98785e-016 -3.97569e-016 3.18055e-015 -1.98785e-016 0 3.18055e-015 3.42485 1.36937 -0.0640303 0.000136572 0.69354 0.00145564 -3.42573 -2.06297 -0.0607933 -3.19502e-024 0 -1.48106e-024 -3.42498 1.36123 0.0639712 -6.769e-005 0.712612 -0.0012277 3.42582 -2.07388 0.0612819 2.55305e-023 0 -2.31416e-026 
-6.0447 10.0443 -6.13779 9.17813e-008 -3.00262 -2.72865e-008 -0.397688 0.743404 3.02444 -0.834153 1.46477 6.05469 -0.834155 1.46477 6.0547 13.997 -1.38916e-005 -2.64419e-005 3.29417e-006 -0.491349 6.85657e-006 27.1928 6.99349 -86.1094 52.7229 -1.1972 32.5027 4.84181 -75.113 68.4566 -20.2764 13.6893 -30.4605 -1.92497e-006 -5.27712e-006 -8.79633e-006 -5.70882e-008 -2.11419e-006 -1.11422e-005 6.36111e-015 1.98785e-015 3.97569e-015 -1.92497e-006 -5.27712e-006 -8.79633e-006 -0.0128693 0.00232208 7.99224e-005 3.18055e-015 -3.57812e-015 2.38542e-015 -1.92497e-006 -5.27712e-006 -8.79633e-006 -0.0160119 0.002993 0.000841321 -1.59028e-014 1.59028e-015 -7.95139e-016 -1.92497e-006 -5.27712e-006 -8.79633e-006 -0.0126055 0.00312279 0.00282301 3.18055e-015 1.74931e-014 -0 -1.92497e-006 -5.27712e-006 -8.79633e-006 -5.70882e-008 -2.11419e-006 -1.11422e-005 6.36111e-015 1.98785e-015 3.97569e-015 -2.1723 -18.1507 13.536 -11.1425 -15.2865 -9.93092 -6.82761 -42.3783 -1.92568 62.2539 26.6873 2.73343 -1.59028e-015 -5.56597e-015 -3.18055e-015 -7.62832e-006 2.80517e-005 -1.08047e-005 3.48113e-006 -1.74334e-006 1.25974e-006 -1.59028e-015 -5.56597e-015 -3.18055e-015 0.0129157 0.00231576 -9.36518e-005 -2.25939e-008 1.04971e-005 2.59784e-006 -1.59028e-015 -5.56597e-015 -3.18055e-015 0.016258 0.0030474 -0.00087607 7.0107e-006 -2.43729e-005 1.00826e-005 -1.59028e-015 -5.56597e-015 -3.18055e-015 0.0145698 0.00368242 -0.00325843 1.25931e-006 -6.14406e-007 -1.15307e-006 -1.59028e-015 -5.56597e-015 -3.18055e-015 -7.62832e-006 2.80517e-005 -1.08047e-005 3.48113e-006 -1.74334e-006 1.25974e-006 -105.853 -45.8754 -119.977 -166.681 40.5213 152.499 20.2435 -33.555 13.2023 1.98253e-006 -4.91679e-007 -1.52663e-005 113.359 -34.6281 112.551 162.931 49.7277 -150.704 -22.5591 -11.8984 -21.1386 -5.67388e-006 1.31182e-007 -2.2557e-006 
-6.04578 10.3175 -5.93806 -1.78606e-007 -4.81472 1.12343e-006 -0.325652 1.35718 3.02977 -0.722925 2.69523 6.06973 -0.722927 2.69523 6.06974 13.6988 -0.358105 -0.150922 1.84709e-006 -0.969661 -2.41663e-006 26.9568 6.05051 -85.8596 53.0167 -1.018 32.5652 5.32857 -74.8443 68.9455 -20.4771 13.5048 -30.323 6.36111e-015 1.59028e-015 -7.95139e-016 6.36111e-015 -3.97569e-015 3.97569e-015 -1.1394e-006 9.25863e-006 -5.58036e-006 6.36111e-015 1.59028e-015 -7.95139e-016 -0.0128339 0.00233952 7.08277e-005 4.08286e-031 1.47101e-014 -1.59028e-015 6.36111e-015 1.59028e-015 -7.95139e-016 -0.0160799 0.0030067 0.000860427 -6.06912e-032 -4.37326e-015 -7.95139e-016 6.36111e-015 1.59028e-015 -7.95139e-016 -0.0125411 0.00312409 0.00280613 -6.72247e-006 5.70319e-007 5.42873e-007 6.36111e-015 1.59028e-015 -7.95139e-016 6.36111e-015 -3.97569e-015 3.97569e-015 -1.1394e-006 9.25863e-006 -5.58036e-006 -2.3853 -19.3367 13.8999 -11.5415 -15.294 -10.0928 -6.84406 -42.3723 -1.93758 62.2658 26.6805 2.71919 -9.02666e-007 -3.18487e-005 1.15966e-005 -1.59028e-015 7.95139e-015 4.77083e-015 -1.59028e-015 1.23246e-014 1.59028e-015 -9.02666e-007 -3.18487e-005 1.15966e-005 0.0129214 0.00234062 -9.61266e-005 -7.26466e-006 2.79794e-006 2.17647e-006 -9.02666e-007 -3.18487e-005 1.15966e-005 0.0162942 0.00303304 -0.000869181 1.59028e-015 -2.38542e-015 1.59028e-015 -9.02666e-007 -3.18487e-005 1.15966e-005 0.0145502 0.00367672 -0.00325806 -1.10348e-031 1.98785e-015 3.18055e-015 -9.02666e-007 -3.18487e-005 1.15966e-005 -1.59028e-015 7.95139e-015 4.77083e-015 -1.59028e-015 1.23246e-014 1.59028e-015 -103.07 -45.2652 -117.033 -166.531 40.804 152.459 19.5962 -33.5916 13.8606 -4.03218e-006 4.24107e-007 1.02405e-005 111.796 -33.946 110.691 162.926 49.736 -150.701 -21.5422 -11.9265 -21.8493 -1.59028e-015 -4.77083e-015 1.27222e-014 
-6.04697 10.5983 -5.74157 6.48357e-009 -6.63424 -4.72025e-008 -0.253289 1.97305 3.03282 -0.611287 3.92989 6.07972 -0.611288 3.92989 6.07972 13.3992 -0.716074 -0.304088 4.31872e-008 -1.44867 8.36478e-007 26.7251 5.10525 -85.614 53.3067 -0.827008 32.6269 5.7994 -74.5861 69.4219 -20.6772 13.3199 -30.1864 -2.11948e-006 -6.84033e-007 -9.22633e-006 -6.62086e-032 -2.38542e-015 -1.59028e-015 5.71326e-006 -4.56459e-006 2.60092e-006 -2.11948e-006 -6.84033e-007 -9.22633e-006 -0.0127855 0.00231589 8.04507e-005 -6.36111e-015 -1.19271e-015 -7.95139e-016 -2.11948e-006 -6.84033e-007 -9.22633e-006 -0.0160217 0.0030091 0.000871595 -1.00909e-006 -4.55668e-006 3.13848e-006 -2.11948e-006 -6.84033e-007 -9.22633e-006 -0.0126337 0.00314971 0.0028514 -5.58929e-006 -1.79964e-005 6.11817e-006 -2.11948e-006 -6.84033e-007 -9.22633e-006 -6.62086e-032 -2.38542e-015 -1.59028e-015 5.71326e-006 -4.56459e-006 2.60092e-006 -2.59231 -20.5264 14.2624 -11.9406 -15.3002 -10.2547 -6.8606 -42.3664 -1.94947 62.2777 26.6737 2.70501 -7.89655e-006 2.14006e-005 -1.37553e-005 -3.18055e-015 -2.78299e-015 1.59028e-015 -6.47549e-007 2.64943e-006 1.84514e-006 -7.89655e-006 2.14006e-005 -1.37553e-005 0.012958 0.0023093 -7.75683e-005 3.21369e-007 -1.91098e-005 -4.72557e-006 -7.89655e-006 2.14006e-005 -1.37553e-005 0.0163354 0.00300745 -0.000862133 -1.04285e-005 2.72653e-005 -1.14622e-005 -7.89655e-006 2.14006e-005 -1.37553e-005 0.0146293 0.00366555 -0.0032606 -1.75299e-006 -2.90628e-006 6.29235e-007 -7.89655e-006 2.14006e-005 -1.37553e-005 -3.18055e-015 -2.78299e-015 1.59028e-015 -6.47549e-007 2.64943e-006 1.84514e-006 -100.355 -44.5581 -114.158 -166.38 41.0857 152.417 18.9486 -33.6368 14.5197 1.62552e-006 -5.36212e-007 -2.45492e-008 110.269 -33.2201 108.861 162.921 49.7438 -150.7 -20.5235 -11.9679 -22.5608 3.2528e-006 -1.07846e-006 -5.13257e-008 
-6.04827 10.8865 -5.54865 5.26466e-008 -8.4603 -1.38482e-006 -0.180578 2.59072 3.0335 -0.49907 5.1682 6.08447 -0.499071 5.16821 6.08448 13.0982 -1.07372 -0.459309 -6.96483e-007 -1.92836 -1.70804e-006 26.4975 4.15805 -85.3723 53.6858 -0.812275 32.6902 6.19601 -74.1312 69.801 -20.8768 13.1345 -30.0505 -1.11254e-005 -1.00504e-005 -7.20757e-006 2.58742e-006 2.77683e-006 -3.48538e-006 3.18055e-015 1.11319e-014 -0 -1.11254e-005 -1.00504e-005 -7.20757e-006 -0.0127814 0.00232701 7.93375e-005 3.18055e-015 -2.38542e-015 7.95139e-016 -1.11254e-005 -1.00504e-005 -7.20757e-006 -0.0160622 0.00300928 0.000865092 -3.18055e-015 2.78299e-015 7.95139e-016 -1.11254e-005 -1.00504e-005 -7.20757e-006 -0.0125622 0.00312083 0.00281557 -6.36111e-015 2.78299e-015 -0 -1.11254e-005 -1.00504e-005 -7.20757e-006 2.58742e-006 2.77683e-006 -3.48538e-006 3.18055e-015 1.11319e-014 -0 -2.79321 -21.7193 14.6239 -12.3397 -15.3054 -10.4167 -6.87721 -42.3606 -1.96139 62.2895 26.6669 2.69082 2.33543e-006 1.14476e-005 2.59294e-006 -1.59028e-015 -7.55382e-015 1.59028e-015 1.75233e-006 -2.7211e-006 -6.09733e-007 2.33543e-006 1.14476e-005 2.59294e-006 0.012935 0.00231234 -8.12394e-005 -3.18055e-015 6.75868e-015 -0 2.33543e-006 1.14476e-005 2.59294e-006 0.0163701 0.00304832 -0.00088273 2.53562e-006 -3.61292e-006 -2.28768e-006 2.33543e-006 1.14476e-005 2.59294e-006 0.0146546 0.00368862 -0.00327353 2.53564e-006 -2.47508e-006 -2.28766e-006 2.33543e-006 1.14476e-005 2.59294e-006 -1.59028e-015 -7.55382e-015 1.59028e-015 1.75233e-006 -2.7211e-006 -6.09733e-007 -97.719 -43.7581 -111.362 -166.229 41.3664 152.374 18.3007 -33.6909 15.1794 -1.62527e-006 -1.59192e-006 2.19394e-008 108.779 -32.4521 107.065 162.916 49.7511 -150.7 -19.5034 -12.023 -23.2728 3.25312e-006 -1.87211e-006 -4.66178e-008 
-6.04965 11.182 -5.35961 -3.18112e-008 -10.292 6.65993e-008 -0.107508 3.20994 3.0318 -0.386125 6.40967 6.08396 -0.386128 6.40969 6.08398 12.7957 -1.43108 -0.616678 7.40346e-007 -2.40871 5.65771e-006 26.2739 3.20901 -85.1344 54.0068 -0.683639 32.7512 6.61134 -73.8017 70.2131 -21.0757 12.9487 -29.9154 2.75869e-032 1.98785e-015 -7.95139e-016 3.18055e-015 9.14409e-015 -7.95139e-016 3.75182e-031 6.75868e-015 -3.18055e-015 2.75869e-032 1.98785e-015 -7.95139e-016 -0.0127584 0.00230092 7.77059e-005 5.41342e-006 1.34425e-005 4.60664e-006 2.75869e-032 1.98785e-015 -7.95139e-016 -0.0160577 0.00299947 0.000864137 -3.18055e-015 1.19271e-015 -7.95139e-016 2.75869e-032 1.98785e-015 -7.95139e-016 -0.0125502 0.00310552 0.00281615 -7.72434e-031 1.39149e-014 3.18055e-015 2.75869e-032 1.98785e-015 -7.95139e-016 3.18055e-015 9.14409e-015 -7.95139e-016 3.75182e-031 6.75868e-015 -3.18055e-015 -2.98796 -22.9153 14.9844 -12.7387 -15.3095 -10.5787 -6.8939 -42.3548 -1.97332 62.3014 26.6602 2.67659 -9.23946e-006 2.5517e-005 7.56181e-006 3.46785e-006 -9.80018e-007 1.30796e-006 -9.54166e-015 -3.57812e-015 -1.27222e-014 -9.23946e-006 2.5517e-005 7.56181e-006 0.0129478 0.00230378 -8.10309e-005 -3.18055e-015 -2.78299e-015 1.59028e-015 -9.23946e-006 2.5517e-005 7.56181e-006 0.0163462 0.00303065 -0.000872067 -4.77083e-015 -1.35174e-014 -4.77083e-015 -9.23946e-006 2.5517e-005 7.56181e-006 0.0145501 0.0036592 -0.00324925 1.59028e-015 9.54166e-015 3.18055e-015 -9.23946e-006 2.5517e-005 7.56181e-006 3.46785e-006 -9.80018e-007 1.30796e-006 -9.54166e-015 -3.57812e-015 -1.27222e-014 -95.169 -42.8697 -108.652 -166.077 41.6461 152.33 17.6529 -33.7538 15.8395 9.54166e-015 -6.36111e-015 -0 107.328 -31.6432 105.303 162.912 49.7578 -150.7 -18.4823 -12.0916 -23.9849 1.59028e-015 -1.59028e-015 3.18055e-015 
